HIERARCHY
ROOT hip
{
  OFFSET 0 90.174 2.4664
  CHANNELS 6 Xposition Yposition Zposition Zrotation Xrotation Yrotation
  JOINT abdomen
  {
    OFFSET 0 -1.186 -1.5018
    CHANNELS 6 Xposition Yposition Zposition Zrotation Xrotation Yrotation
    JOINT abdomen2
    {
      OFFSET 0 9.964 0.2134
      CHANNELS 6 Xposition Yposition Zposition Zrotation Xrotation Yrotation
      JOINT chest
      {
        OFFSET 0 13.134 -3.2573
        CHANNELS 6 Xposition Yposition Zposition Zrotation Xrotation Yrotation
        JOINT neck
        {
          OFFSET 0 20.686 -1.6905
          CHANNELS 6 Xposition Yposition Zposition Zrotation Xrotation Yrotation
          JOINT head
          {
            OFFSET 0 7.238 -0.1237
            CHANNELS 6 Xposition Yposition Zposition Zrotation Xrotation Yrotation
            End Site
            {
              OFFSET 0 0 0
            }
          }
        }
        JOINT lCollar
        {
          OFFSET 1.7069 20.075 5.0056
          CHANNELS 6 Xposition Yposition Zposition Zrotation Xrotation Yrotation
          JOINT lShldr
          {
            OFFSET 13.6458 -0.047 -4.849
            CHANNELS 6 Xposition Yposition Zposition Zrotation Xrotation Yrotation
            JOINT lForeArm
            {
              OFFSET 28.3255 -0.9759 2.2888
              CHANNELS 6 Xposition Yposition Zposition Zrotation Xrotation Yrotation
              JOINT lHand
              {
                OFFSET 22.1583 -0.53 10.8316
                CHANNELS 6 Xposition Yposition Zposition Zrotation Xrotation Yrotation
                JOINT lThumb1
                {
                  OFFSET 0.786 0.112 2.5817
                  CHANNELS 6 Xposition Yposition Zposition Zrotation Xrotation Yrotation
                  JOINT lThumb2
                  {
                    OFFSET 0.3601 -0.878 4.2331
                    CHANNELS 6 Xposition Yposition Zposition Zrotation Xrotation Yrotation
                    JOINT lThumb2_End
                    {
                      OFFSET 1.8127 -1.216 2.2227
                      CHANNELS 6 Xposition Yposition Zposition Zrotation Xrotation Yrotation
                      End Site
                      {
                        OFFSET 0.0181 -0.0122 0.0222
                      }
                    }
                  }
                }
                JOINT lCarpal1
                {
                  OFFSET 0.9571 1.114 1.7695
                  CHANNELS 6 Xposition Yposition Zposition Zrotation Xrotation Yrotation
                  JOINT lIndex1
                  {
                    OFFSET 4.1246 0.487 4.1451
                    CHANNELS 6 Xposition Yposition Zposition Zrotation Xrotation Yrotation
                    JOINT lIndex2
                    {
                      OFFSET 3.4052 -1.454 2.7682
                      CHANNELS 6 Xposition Yposition Zposition Zrotation Xrotation Yrotation
                      JOINT lIndex2_End
                      {
                        OFFSET 1.4531 -1.795 1.2713
                        CHANNELS 6 Xposition Yposition Zposition Zrotation Xrotation Yrotation
                        End Site
                        {
                          OFFSET 0.0145 -0.0179 0.0127
                        }
                      }
                    }
                  }
                  JOINT lMid1
                  {
                    OFFSET 5.6954 0.21 2.1184
                    CHANNELS 6 Xposition Yposition Zposition Zrotation Xrotation Yrotation
                    JOINT lMid2
                    {
                      OFFSET 3.9766 -1.54 2.3863
                      CHANNELS 6 Xposition Yposition Zposition Zrotation Xrotation Yrotation
                      JOINT lMid2_End
                      {
                        OFFSET 1.4042 -1.926 1.125
                        CHANNELS 6 Xposition Yposition Zposition Zrotation Xrotation Yrotation
                        End Site
                        {
                          OFFSET 0.014 -0.0193 0.0113
                        }
                      }
                    }
                  }
                }
                JOINT lCarpal2
                {
                  OFFSET 2.0956 0.66 -0.3894
                  CHANNELS 6 Xposition Yposition Zposition Zrotation Xrotation Yrotation
                  JOINT lRing1
                  {
                    OFFSET 5.0395 -0.09 2.4971
                    CHANNELS 6 Xposition Yposition Zposition Zrotation Xrotation Yrotation
                    JOINT lRing2
                    {
                      OFFSET 3.7921 -1.552 1.4806
                      CHANNELS 6 Xposition Yposition Zposition Zrotation Xrotation Yrotation
                      JOINT lRing2_End
                      {
                        OFFSET 1.4655 -1.808 0.9609
                        CHANNELS 6 Xposition Yposition Zposition Zrotation Xrotation Yrotation
                        End Site
                        {
                          OFFSET 0.0147 -0.0181 0.0096
                        }
                      }
                    }
                  }
                  JOINT lPinky1
                  {
                    OFFSET 4.9141 -1.269 0.3591
                    CHANNELS 6 Xposition Yposition Zposition Zrotation Xrotation Yrotation
                    JOINT lPinky2
                    {
                      OFFSET 3.1477 -1.685 0.8462
                      CHANNELS 6 Xposition Yposition Zposition Zrotation Xrotation Yrotation
                      JOINT lPinky2_End
                      {
                        OFFSET 0.8055 -1.585 0.7955
                        CHANNELS 6 Xposition Yposition Zposition Zrotation Xrotation Yrotation
                        End Site
                        {
                          OFFSET 0.0081 -0.0158 0.008
                        }
                      }
                    }
                  }
                }
              }
            }
          }
        }
        JOINT rCollar
        {
          OFFSET -1.7069 20.075 5.0056
          CHANNELS 6 Xposition Yposition Zposition Zrotation Xrotation Yrotation
          JOINT rShldr
          {
            OFFSET -13.6458 -0.047 -4.849
            CHANNELS 6 Xposition Yposition Zposition Zrotation Xrotation Yrotation
            JOINT rForeArm
            {
              OFFSET -28.3255 -0.9759 2.2888
              CHANNELS 6 Xposition Yposition Zposition Zrotation Xrotation Yrotation
              JOINT rHand
              {
                OFFSET -22.1583 -0.53 10.8316
                CHANNELS 6 Xposition Yposition Zposition Zrotation Xrotation Yrotation
                JOINT rThumb1
                {
                  OFFSET -0.786 0.112 2.5817
                  CHANNELS 6 Xposition Yposition Zposition Zrotation Xrotation Yrotation
                  JOINT rThumb2
                  {
                    OFFSET -0.3601 -0.878 4.2331
                    CHANNELS 6 Xposition Yposition Zposition Zrotation Xrotation Yrotation
                    JOINT rThumb2_End
                    {
                      OFFSET -1.8127 -1.216 2.2227
                      CHANNELS 6 Xposition Yposition Zposition Zrotation Xrotation Yrotation
                      End Site
                      {
                        OFFSET -0.0181 -0.0122 0.0222
                      }
                    }
                  }
                }
                JOINT rCarpal1
                {
                  OFFSET -0.9571 1.114 1.7695
                  CHANNELS 6 Xposition Yposition Zposition Zrotation Xrotation Yrotation
                  JOINT rIndex1
                  {
                    OFFSET -4.1246 0.487 4.1451
                    CHANNELS 6 Xposition Yposition Zposition Zrotation Xrotation Yrotation
                    JOINT rIndex2
                    {
                      OFFSET -3.4052 -1.454 2.7682
                      CHANNELS 6 Xposition Yposition Zposition Zrotation Xrotation Yrotation
                      JOINT rIndex2_End
                      {
                        OFFSET -1.4531 -1.795 1.2713
                        CHANNELS 6 Xposition Yposition Zposition Zrotation Xrotation Yrotation
                        End Site
                        {
                          OFFSET -0.0145 -0.018 0.0127
                        }
                      }
                    }
                  }
                  JOINT rMid1
                  {
                    OFFSET -5.6954 0.21 2.1184
                    CHANNELS 6 Xposition Yposition Zposition Zrotation Xrotation Yrotation
                    JOINT rMid2
                    {
                      OFFSET -3.9766 -1.54 2.3863
                      CHANNELS 6 Xposition Yposition Zposition Zrotation Xrotation Yrotation
                      JOINT rMid2_End
                      {
                        OFFSET -1.4042 -1.926 1.125
                        CHANNELS 6 Xposition Yposition Zposition Zrotation Xrotation Yrotation
                        End Site
                        {
                          OFFSET -0.014 -0.0193 0.0113
                        }
                      }
                    }
                  }
                }
                JOINT rCarpal2
                {
                  OFFSET -2.0956 0.66 -0.3894
                  CHANNELS 6 Xposition Yposition Zposition Zrotation Xrotation Yrotation
                  JOINT rRing1
                  {
                    OFFSET -5.0395 -0.09 2.4971
                    CHANNELS 6 Xposition Yposition Zposition Zrotation Xrotation Yrotation
                    JOINT rRing2
                    {
                      OFFSET -3.7921 -1.552 1.4806
                      CHANNELS 6 Xposition Yposition Zposition Zrotation Xrotation Yrotation
                      JOINT rRing2_End
                      {
                        OFFSET -1.4655 -1.808 0.9609
                        CHANNELS 6 Xposition Yposition Zposition Zrotation Xrotation Yrotation
                        End Site
                        {
                          OFFSET -0.0147 -0.0181 0.0096
                        }
                      }
                    }
                  }
                  JOINT rPinky1
                  {
                    OFFSET -4.9141 -1.269 0.3592
                    CHANNELS 6 Xposition Yposition Zposition Zrotation Xrotation Yrotation
                    JOINT rPinky2
                    {
                      OFFSET -3.1477 -1.685 0.8462
                      CHANNELS 6 Xposition Yposition Zposition Zrotation Xrotation Yrotation
                      JOINT rPinky2_End
                      {
                        OFFSET -0.8055 -1.585 0.7955
                        CHANNELS 6 Xposition Yposition Zposition Zrotation Xrotation Yrotation
                        End Site
                        {
                          OFFSET -0.0081 -0.0158 0.008
                        }
                      }
                    }
                  }
                }
              }
            }
          }
        }
      }
    }
  }
  JOINT lThigh
  {
    OFFSET 8.367 -8.2066 0.5982
    CHANNELS 6 Xposition Yposition Zposition Zrotation Xrotation Yrotation
    JOINT lShin
    {
      OFFSET 2.1923 -43.463 -0.4932
      CHANNELS 6 Xposition Yposition Zposition Zrotation Xrotation Yrotation
      JOINT lFoot
      {
        OFFSET 0.7333 -45.8593 -2.6451
        CHANNELS 6 Xposition Yposition Zposition Zrotation Xrotation Yrotation
        End Site
        {
          OFFSET 2.6618 -4.2699 12.3931
        }
      }
    }
  }
  JOINT rThigh
  {
    OFFSET -8.367 -8.2066 0.5982
    CHANNELS 6 Xposition Yposition Zposition Zrotation Xrotation Yrotation
    JOINT rShin
    {
      OFFSET -2.1923 -43.463 -0.4931
      CHANNELS 6 Xposition Yposition Zposition Zrotation Xrotation Yrotation
      JOINT rFoot
      {
        OFFSET -0.7333 -45.8593 -2.6451
        CHANNELS 6 Xposition Yposition Zposition Zrotation Xrotation Yrotation
        End Site
        {
          OFFSET -2.6618 -4.2699 12.3931
        }
      }
    }
  }
}
MOTION
Frames:	4
Frame Time:	0.0333333
0.529973 0.22687 52.0352 -99.585 -89.9887 -99.5739 -1.11022e-016 -1.186 -1.5018 0.294646 1.76016 -0.152355 5.55112e-017 9.964 0.2134 0.594397 3.51951 -0.313991 0 13.134 -3.2573 0.594396 3.51952 -0.313991 0 20.686 -1.6905 -6.90329e-008 -1.69504 -4.37436e-006 5.55112e-017 7.238 -0.1237 2.68976e-008 -4.68625 -8.31417e-008 1.7069 20.075 5.0056 11.8665 -23.957 -9.53169 13.6458 -0.047 -4.849 -92.542 -41.3935 -54.5486 28.3255 -0.9759 2.2888 -7.018 6.08692 -113.255 22.1583 -0.53 10.8316 -13.6591 -2.84308 19.0743 0.786 0.112 2.5817 -1.92886e-006 1.93479e-006 1.85841e-006 0.3601 -0.878 4.2331 -1.5276e-007 -2.13116e-006 5.58427e-006 1.8127 -1.216 2.2227 -5.69523e-006 5.57369e-007 -1.85556e-006 0.9571 1.114 1.7695 2.20695e-032 -7.95139e-016 1.59028e-015 4.1246 0.487 4.1451 -1.92886e-006 1.93479e-006 1.85841e-006 3.4052 -1.454 2.7682 -1.5276e-007 -2.13116e-006 5.58427e-006 1.4531 -1.795 1.2713 -5.69523e-006 5.57369e-007 -1.85556e-006 5.6954 0.21 2.1184 -1.92886e-006 1.93479e-006 1.85841e-006 3.9766 -1.54 2.3863 -1.5276e-007 -2.13116e-006 5.58427e-006 1.4042 -1.926 1.125 -5.69523e-006 5.57369e-007 -1.85556e-006 2.0956 0.66 -0.3894 2.20695e-032 -7.95139e-016 1.59028e-015 5.0395 -0.09 2.4971 -1.92886e-006 1.93479e-006 1.85841e-006 3.7921 -1.552 1.4806 -1.5276e-007 -2.13116e-006 5.58427e-006 1.4655 -1.808 0.9609 -5.69523e-006 5.57369e-007 -1.85556e-006 4.9141 -1.269 0.3591 -1.92886e-006 1.93479e-006 1.85841e-006 3.1477 -1.685 0.8462 -1.5276e-007 -2.13116e-006 5.58427e-006 0.8055 -1.585 0.7955 -5.69523e-006 5.57369e-007 -1.85556e-006 -1.7069 20.075 5.0056 -11.8904 -23.9486 9.3559 -13.6458 -0.047 -4.849 93.7033 -39.1822 57.6803 -28.3255 -0.9759 2.2888 8.66832 2.59675 95.2777 -22.1583 -0.53 10.8316 23.0674 -1.3194 -12.7171 -0.786 0.112 2.5817 -8.19023e-006 2.88951e-006 -6.94368e-006 -0.3601 -0.878 4.2331 6.36111e-015 0 -3.18055e-015 -1.8127 -1.216 2.2227 -2.23151e-006 5.45555e-006 -6.02801e-007 -0.9571 1.114 1.7695 6.36111e-015 -3.18055e-015 3.18055e-015 -4.1246 0.487 4.1451 -8.19023e-006 2.88951e-006 -6.94368e-006 -3.4052 -1.454 2.7682 3.18055e-015 3.18055e-015 6.36111e-015 -1.4531 -1.795 1.2713 -2.23151e-006 5.45555e-006 -6.02801e-007 -5.6954 0.21 2.1184 -8.19023e-006 2.88951e-006 -6.94368e-006 -3.9766 -1.54 2.3863 3.18055e-015 3.18055e-015 6.36111e-015 -1.4042 -1.926 1.125 -2.23151e-006 5.45555e-006 -6.02801e-007 -2.0956 0.66 -0.3894 6.36111e-015 -3.18055e-015 3.18055e-015 -5.0395 -0.09 2.4971 -8.19023e-006 2.88951e-006 -6.94368e-006 -3.7921 -1.552 1.4806 3.18055e-015 3.18055e-015 6.36111e-015 -1.4655 -1.808 0.9609 -2.23151e-006 5.45555e-006 -6.02801e-007 -4.9141 -1.269 0.3592 -8.19023e-006 2.88951e-006 -6.94368e-006 -3.1477 -1.685 0.8462 3.18055e-015 3.18055e-015 6.36111e-015 -0.8055 -1.585 0.7955 -2.23151e-006 5.45555e-006 -6.02801e-007 8.367 -8.2066 0.5982 11.8394 -36.6384 12.2884 2.1923 -43.463 -0.4932 30.1953 81.7791 -26.4701 0.7333 -45.8593 -2.6451 1.55862 40.8215 5.3308 -8.367 -8.2066 0.5982 -11.8448 -36.6385 -12.2939 -2.1923 -43.463 -0.4931 -30.1943 81.7783 26.4639 -0.7333 -45.8593 -2.6451 -1.56203 40.8225 -5.33328 
0.529973 0.22687 52.1717 -99.585 -89.9887 -99.5739 -1.11022e-016 -1.186 -1.5018 0.294879 1.89014 -0.151923 5.55112e-017 9.964 0.2134 0.595262 3.77949 -0.313841 1.66533e-016 13.134 -3.2573 0.595262 3.77946 -0.31384 -1.11022e-016 20.686 -1.6905 -1.56709e-005 -2.37772 4.40255e-007 0 7.238 -0.1237 2.1644e-007 -5.36969 3.22425e-008 1.7069 20.075 5.0056 12.1153 -24.7252 -9.26735 13.6458 -0.047 -4.849 -93.0277 -41.3191 -54.6473 28.3255 -0.9759 2.2888 -7.05971 6.04948 -112.855 22.1583 -0.53 10.8316 -14.3888 -3.38721 17.4871 0.786 0.112 2.5817 -2.20695e-031 7.95139e-015 1.59028e-015 0.3601 -0.878 4.2331 3.97252e-031 7.15625e-015 -3.18055e-015 1.8127 -1.216 2.2227 -3.18055e-015 4.77083e-015 -1.59028e-015 0.9571 1.114 1.7695 -8.82781e-032 3.18055e-015 1.59028e-015 4.1246 0.487 4.1451 6.36111e-015 2.78299e-014 4.77083e-015 3.4052 -1.454 2.7682 -3.18055e-015 7.95139e-015 -4.77083e-015 1.4531 -1.795 1.2713 -9.71059e-031 8.74653e-015 6.36111e-015 5.6954 0.21 2.1184 6.36111e-015 2.78299e-014 4.77083e-015 3.9766 -1.54 2.3863 -3.18055e-015 7.95139e-015 -4.77083e-015 1.4042 -1.926 1.125 -9.71059e-031 8.74653e-015 6.36111e-015 2.0956 0.66 -0.3894 -8.82781e-032 3.18055e-015 1.59028e-015 5.0395 -0.09 2.4971 6.36111e-015 2.78299e-014 4.77083e-015 3.7921 -1.552 1.4806 -3.18055e-015 7.95139e-015 -4.77083e-015 1.4655 -1.808 0.9609 -9.71059e-031 8.74653e-015 6.36111e-015 4.9141 -1.269 0.3591 6.36111e-015 2.78299e-014 4.77083e-015 3.1477 -1.685 0.8462 -3.18055e-015 7.95139e-015 -4.77083e-015 0.8055 -1.585 0.7955 -9.71059e-031 8.74653e-015 6.36111e-015 -1.7069 20.075 5.0056 -12.1407 -24.7171 9.09988 -13.6458 -0.047 -4.849 93.5489 -39.3357 57.5149 -28.3255 -0.9759 2.2888 8.68148 2.55891 94.9798 -22.1583 -0.53 10.8316 23.8493 -1.5452 -11.1202 -0.786 0.112 2.5817 -3.18055e-015 1.59028e-015 3.18055e-015 -0.3601 -0.878 4.2331 -2.64834e-031 -4.77083e-015 -3.18055e-015 -1.8127 -1.216 2.2227 -3.18055e-015 -4.77083e-015 3.18055e-015 -0.9571 1.114 1.7695 -3.18055e-015 3.18055e-015 3.18055e-015 -4.1246 0.487 4.1451 3.18055e-015 -2.38542e-014 1.27222e-014 -3.4052 -1.454 2.7682 1.05934e-030 -9.54166e-015 6.36111e-015 -1.4531 -1.795 1.2713 -6.36111e-015 -9.54166e-015 3.18055e-015 -5.6954 0.21 2.1184 3.18055e-015 -2.38542e-014 1.27222e-014 -3.9766 -1.54 2.3863 1.05934e-030 -9.54166e-015 6.36111e-015 -1.4042 -1.926 1.125 -6.36111e-015 -9.54166e-015 3.18055e-015 -2.0956 0.66 -0.3894 -3.18055e-015 3.18055e-015 3.18055e-015 -5.0395 -0.09 2.4971 3.18055e-015 -2.38542e-014 1.27222e-014 -3.7921 -1.552 1.4806 1.05934e-030 -9.54166e-015 6.36111e-015 -1.4655 -1.808 0.9609 -6.36111e-015 -9.54166e-015 3.18055e-015 -4.9141 -1.269 0.3592 3.18055e-015 -2.38542e-014 1.27222e-014 -3.1477 -1.685 0.8462 1.05934e-030 -9.54166e-015 6.36111e-015 -0.8055 -1.585 0.7955 -6.36111e-015 -9.54166e-015 3.18055e-015 8.367 -8.2066 0.5982 11.8394 -36.6384 12.2884 2.1923 -43.463 -0.4932 30.195 81.779 -26.4698 0.7333 -45.8593 -2.6451 1.55862 40.8216 5.3308 -8.367 -8.2066 0.5982 -11.8448 -36.6385 -12.2939 -2.1923 -43.463 -0.4931 -30.1943 81.7783 26.4639 -0.7333 -45.8593 -2.6451 -1.56203 40.8225 -5.33328 
0.529973 0.226869 52.3082 -99.585 -89.9887 -99.5739 0 -1.186 -1.5018 0.295087 2.02037 -0.151483 0 9.964 0.2134 0.596078 4.03994 -0.313677 -5.55112e-017 13.134 -3.2573 0.596078 4.03991 -0.313676 5.55112e-017 20.686 -1.6905 4.12246e-006 -3.06239 -4.23529e-006 -5.55112e-017 7.238 -0.1237 8.08979e-008 -6.05346 1.91461e-008 1.7069 20.075 5.0056 12.3698 -25.4928 -8.99747 13.6458 -0.047 -4.849 -93.5128 -41.2441 -54.7451 28.3255 -0.9759 2.2888 -7.10121 6.01171 -112.455 22.1583 -0.53 10.8316 -15.1365 -3.91286 15.8862 0.786 0.112 2.5817 -5.29669e-031 -6.36111e-015 -4.77083e-015 0.3601 -0.878 4.2331 1.80712e-006 -3.75869e-006 3.72751e-006 1.8127 -1.216 2.2227 3.18055e-015 -4.77083e-015 -3.18055e-015 0.9571 1.114 1.7695 0 0 -1.59028e-015 4.1246 0.487 4.1451 -9.71059e-031 1.74931e-014 3.18055e-015 3.4052 -1.454 2.7682 1.80712e-006 -3.75869e-006 3.72751e-006 1.4531 -1.795 1.2713 3.18055e-015 -3.97569e-015 -1.59028e-015 5.6954 0.21 2.1184 -9.71059e-031 1.74931e-014 3.18055e-015 3.9766 -1.54 2.3863 1.80712e-006 -3.75869e-006 3.72751e-006 1.4042 -1.926 1.125 3.18055e-015 -3.97569e-015 -1.59028e-015 2.0956 0.66 -0.3894 0 0 -1.59028e-015 5.0395 -0.09 2.4971 -9.71059e-031 1.74931e-014 3.18055e-015 3.7921 -1.552 1.4806 1.80712e-006 -3.75869e-006 3.72751e-006 1.4655 -1.808 0.9609 3.18055e-015 -3.97569e-015 -1.59028e-015 4.9141 -1.269 0.3591 -9.71059e-031 1.74931e-014 3.18055e-015 3.1477 -1.685 0.8462 1.80712e-006 -3.75869e-006 3.72751e-006 0.8055 -1.585 0.7955 3.18055e-015 -3.97569e-015 -1.59028e-015 -1.7069 20.075 5.0056 -12.3966 -25.4852 8.83833 -13.6458 -0.047 -4.849 93.3934 -39.489 57.3486 -28.3255 -0.9759 2.2888 8.69441 2.52103 94.6819 -22.1583 -0.53 10.8316 24.6403 -1.74985 -9.51436 -0.786 0.112 2.5817 1.05934e-030 9.54166e-015 -6.36111e-015 -0.3601 -0.878 4.2331 9.54166e-015 7.95139e-015 -3.18055e-015 -1.8127 -1.216 2.2227 3.53113e-031 3.18055e-015 -6.36111e-015 -0.9571 1.114 1.7695 -3.18055e-015 3.18055e-015 -3.18055e-015 -4.1246 0.487 4.1451 -1.27222e-014 7.95139e-015 3.18055e-015 -3.4052 -1.454 2.7682 6.36111e-015 6.36111e-015 -3.18055e-015 -1.4531 -1.795 1.2713 6.36111e-015 9.54166e-015 3.18055e-015 -5.6954 0.21 2.1184 -1.27222e-014 7.95139e-015 3.18055e-015 -3.9766 -1.54 2.3863 6.36111e-015 6.36111e-015 -3.18055e-015 -1.4042 -1.926 1.125 6.36111e-015 9.54166e-015 3.18055e-015 -2.0956 0.66 -0.3894 -3.18055e-015 3.18055e-015 -3.18055e-015 -5.0395 -0.09 2.4971 -1.27222e-014 7.95139e-015 3.18055e-015 -3.7921 -1.552 1.4806 6.36111e-015 6.36111e-015 -3.18055e-015 -1.4655 -1.808 0.9609 6.36111e-015 9.54166e-015 3.18055e-015 -4.9141 -1.269 0.3592 -1.27222e-014 7.95139e-015 3.18055e-015 -3.1477 -1.685 0.8462 6.36111e-015 6.36111e-015 -3.18055e-015 -0.8055 -1.585 0.7955 6.36111e-015 9.54166e-015 3.18055e-015 8.367 -8.2066 0.5982 11.8394 -36.6384 12.2884 2.1923 -43.463 -0.4932 30.1951 81.7791 -26.4698 0.7333 -45.8593 -2.6451 1.55864 40.8216 5.33079 -8.367 -8.2066 0.5982 -11.8448 -36.6385 -12.2939 -2.1923 -43.463 -0.4931 -30.1944 81.7783 26.464 -0.7333 -45.8593 -2.6451 -1.56202 40.8225 -5.33327 
0.529973 0.226869 52.4447 -99.585 -89.9887 -99.5739 -1.11022e-016 -1.186 -1.5018 0.295271 2.15082 -0.151036 0 9.964 0.2134 0.596851 4.30082 -0.313503 5.55112e-017 13.134 -3.2573 0.596851 4.30082 -0.313503 5.55112e-017 20.686 -1.6905 3.59419e-006 -3.74619 1.0118e-006 0 7.238 -0.1237 1.41274e-007 -6.73759 -1.33242e-007 1.7069 20.075 5.0056 12.6301 -26.26 -8.72182 13.6458 -0.047 -4.849 -93.9973 -41.1685 -54.8419 28.3255 -0.9759 2.2888 -7.1424 5.97369 -112.055 22.1583 -0.53 10.8316 -15.9017 -4.41899 14.2723 0.786 0.112 2.5817 3.18055e-015 -7.15625e-015 -7.95139e-015 0.3601 -0.878 4.2331 -4.41391e-032 -7.95139e-016 -3.18055e-015 1.8127 -1.216 2.2227 -1.76556e-031 -3.18055e-015 -3.18055e-015 0.9571 1.114 1.7695 3.18055e-015 -3.97569e-015 -4.77083e-015 4.1246 0.487 4.1451 6.36111e-015 2.14687e-014 7.95139e-015 3.4052 -1.454 2.7682 -1.76556e-031 -3.18055e-015 -3.18055e-015 1.4531 -1.795 1.2713 9.54166e-015 -4.77083e-015 -6.36111e-015 5.6954 0.21 2.1184 6.36111e-015 2.14687e-014 7.95139e-015 3.9766 -1.54 2.3863 -1.76556e-031 -3.18055e-015 -3.18055e-015 1.4042 -1.926 1.125 9.54166e-015 -4.77083e-015 -6.36111e-015 2.0956 0.66 -0.3894 3.18055e-015 -3.97569e-015 -4.77083e-015 5.0395 -0.09 2.4971 6.36111e-015 2.14687e-014 7.95139e-015 3.7921 -1.552 1.4806 -1.76556e-031 -3.18055e-015 -3.18055e-015 1.4655 -1.808 0.9609 9.54166e-015 -4.77083e-015 -6.36111e-015 4.9141 -1.269 0.3591 6.36111e-015 2.14687e-014 7.95139e-015 3.1477 -1.685 0.8462 -1.76556e-031 -3.18055e-015 -3.18055e-015 0.8055 -1.585 0.7955 9.54166e-015 -4.77083e-015 -6.36111e-015 -1.7069 20.075 5.0056 -12.6583 -26.2527 8.57106 -13.6458 -0.047 -4.849 93.2371 -39.6418 57.1814 -28.3255 -0.9759 2.2888 8.70719 2.48306 94.384 -22.1583 -0.53 10.8316 25.4393 -1.93277 -7.90052 -0.786 0.112 2.5817 -9.54166e-015 3.18055e-015 -3.18055e-015 -0.3601 -0.878 4.2331 -6.36111e-015 4.77083e-015 -3.18055e-015 -1.8127 -1.216 2.2227 3.18055e-015 9.54166e-015 6.36111e-015 -0.9571 1.114 1.7695 -6.36111e-015 -1.59028e-015 -3.18055e-015 -4.1246 0.487 4.1451 9.54166e-015 -1.43125e-014 9.54166e-015 -3.4052 -1.454 2.7682 -3.18055e-015 6.36111e-015 3.18055e-015 -1.4531 -1.795 1.2713 0 4.77083e-015 -0 -5.6954 0.21 2.1184 9.54166e-015 -1.43125e-014 9.54166e-015 -3.9766 -1.54 2.3863 -3.18055e-015 6.36111e-015 3.18055e-015 -1.4042 -1.926 1.125 0 4.77083e-015 -0 -2.0956 0.66 -0.3894 -6.36111e-015 -1.59028e-015 -3.18055e-015 -5.0395 -0.09 2.4971 9.54166e-015 -1.43125e-014 9.54166e-015 -3.7921 -1.552 1.4806 -3.18055e-015 6.36111e-015 3.18055e-015 -1.4655 -1.808 0.9609 0 4.77083e-015 -0 -4.9141 -1.269 0.3592 9.54166e-015 -1.43125e-014 9.54166e-015 -3.1477 -1.685 0.8462 -3.18055e-015 6.36111e-015 3.18055e-015 -0.8055 -1.585 0.7955 0 4.77083e-015 -0 8.367 -8.2066 0.5982 11.8394 -36.6384 12.2884 2.1923 -43.463 -0.4932 30.1951 81.7791 -26.4698 0.7333 -45.8593 -2.6451 1.55864 40.8216 5.33079 -8.367 -8.2066 0.5982 -11.8448 -36.6385 -12.2939 -2.1923 -43.463 -0.4931 -30.1944 81.7783 26.464 -0.7333 -45.8593 -2.6451 -1.56203 40.8225 -5.33327 
